<svg width="16" height="16" viewBox="0 0 16 16" fill="none" xmlns="http://www.w3.org/2000/svg">
<rect width="16" height="16" fill="white"/>
<path d="M8.62972 12.5811C8.22877 12.5811 7.91274 12.5175 7.6816 12.3903C7.35613 12.2149 7.1934 11.9452 7.1934 11.5811C7.1934 11.3399 7.25472 11.0789 7.37736 10.7982C7.5566 10.9781 7.7217 11.1053 7.87264 11.1798C8.02358 11.25 8.18396 11.2851 8.35377 11.2851C8.83491 11.2851 9.20519 11.0088 9.46462 10.4561C9.57311 10.2324 9.6533 9.98025 9.70519 9.69955C9.75708 9.41446 9.78302 9.13596 9.78302 8.86403C9.78302 8.34648 9.68632 7.94297 9.49292 7.6535C9.26179 7.31578 8.90094 7.14692 8.41038 7.14692C8.15094 7.14692 7.92924 7.16227 7.74528 7.19297L6.5566 12.3509H4.46934L6.43632 3.7785L8.58019 3.51534L7.90094 6.50218H7.98585C8.26415 6.50218 8.53066 6.43859 8.78538 6.3114C9.04009 6.1842 9.26415 6.01096 9.45755 5.79166C9.64623 5.57675 9.79481 5.3399 9.9033 5.08113C10.0165 4.82236 10.0731 4.56797 10.0731 4.31797C10.0731 4.12499 10.0354 3.94297 9.95991 3.77192C9.88915 3.59648 9.78066 3.44297 9.63443 3.31139C9.29953 3.01315 8.80896 2.86403 8.16274 2.86403C7.5684 2.86403 7.00472 2.98245 6.4717 3.21929C5.87736 3.48683 5.42217 3.84868 5.10613 4.30482C4.72877 4.83552 4.54009 5.44736 4.54009 6.14034C4.54009 6.42982 4.57547 6.6535 4.64623 6.8114C4.66509 6.86841 4.68868 6.91885 4.71698 6.96271C4.73585 6.99341 4.74528 7.02411 4.74528 7.05482C4.23113 7.05482 3.84434 6.96052 3.58491 6.77192C3.32547 6.57894 3.19576 6.26096 3.19576 5.81797C3.19576 5.20394 3.44811 4.61841 3.95283 4.06139C4.18868 3.79824 4.46934 3.55701 4.79481 3.33771C5.125 3.11403 5.48585 2.92104 5.87736 2.75876C6.70283 2.41666 7.56132 2.24561 8.45283 2.24561C9.44811 2.24561 10.2288 2.4649 10.7948 2.9035C11.0401 3.09648 11.2241 3.32236 11.3467 3.58113C11.4741 3.83552 11.5377 4.10525 11.5377 4.39034C11.5377 4.81578 11.4151 5.21052 11.1698 5.57455C10.8962 5.97806 10.5354 6.29604 10.0873 6.5285C10.6675 6.62499 11.1085 6.88596 11.4104 7.3114C11.6698 7.6842 11.7995 8.14692 11.7995 8.69955C11.7995 8.92762 11.7759 9.17982 11.7288 9.45613C11.6816 9.73245 11.6108 10.0066 11.5165 10.2785C11.2854 10.9539 10.9575 11.4824 10.533 11.864C10.0047 12.3421 9.37028 12.5811 8.62972 12.5811Z" fill="#5E17EA"/>
</svg>
